<svg xmlns="http://www.w3.org/2000/svg" viewBox="0 0 112.3178 18.4861"><title>Untitled-1</title><path d="M22.742 15.758a1.257 1.257 0 0 0 1.161.698.815.815 0 0 0 .965-.764 1.057 1.057 0 0 0-.834-.958l-.359-.17a1.324 1.324 0 0 1-1.024-1.205 1.058 1.058 0 0 1 1.141-1.057 1.304 1.304 0 0 1 1.213.652l-.326.209a.942.942 0 0 0-.881-.49.67.67 0 0 0-.729.673.93.93 0 0 0 .781.834l.359.169a1.43 1.43 0 0 1 1.082 1.33 1.195 1.195 0 0 1-1.382 1.16 1.64 1.64 0 0 1-1.525-.892zm3.083-1.188a2.204 2.204 0 0 1 2.243-2.268 2.104 2.104 0 0 1 1.741.828l-.326.234a1.708 1.708 0 0 0-1.421-.677 1.794 1.794 0 0 0-1.793 1.884 1.852 1.852 0 0 0 3.331 1.147l.333.235a2.295 2.295 0 0 1-4.108-1.382m4.934-2.217h.43v4.434h-.43zm1.591 0h2.673v.378h-2.25v2.218h2.009v.371h-2.009v1.089h2.342v.378H32.35v-4.434zm4.061.945v3.489h-.398v-4.526h.039l2.986 3.58v-3.488h.398v4.525h-.039l-2.986-3.58zm3.864 1.271a2.204 2.204 0 0 1 2.243-2.268 2.106 2.106 0 0 1 1.742.828l-.327.234a1.708 1.708 0 0 0-1.42-.677 1.794 1.794 0 0 0-1.795 1.884 1.854 1.854 0 0 0 3.333 1.147l.332.235a2.295 2.295 0 0 1-4.108-1.382m4.908-2.217h2.673v.378h-2.249v2.218h2.008v.371h-2.008v1.089h2.341v.378h-2.765v-4.434zm-20.49-4.393h-.827V2.898h.827a2.42 2.42 0 0 1 2.436 2.532 2.418 2.418 0 0 1-2.436 2.531m-.286-6.227h-2.023v7.393h2.023c2.267 0 4.269-.763 4.269-3.697s-2.002-3.696-4.269-3.696m5.496.001h1.483v7.393h-1.483zM34.278 3.8a1.029 1.029 0 0 1 1.166-1.027 3.814 3.814 0 0 1 1.503.317l.138-1.218a5.584 5.584 0 0 0-1.769-.266c-1.303 0-2.585.604-2.585 2.256 0 2.448 3.242 1.865 3.242 3.273a1.173 1.173 0 0 1-1.314.955 3.573 3.573 0 0 1-1.673-.456l-.138 1.335a6.55 6.55 0 0 0 1.896.286c1.493 0 2.775-.616 2.775-2.236 0-2.478-3.24-1.938-3.24-3.22M42.56 8.09a2.436 2.436 0 0 1-2.51-2.639 2.47 2.47 0 0 1 2.479-2.679 3.06 3.06 0 0 1 1.6.391l.105-1.25a4.897 4.897 0 0 0-1.673-.307c-2.51 0-4.057 1.42-4.057 3.951 0 2.5 1.663 3.697 4.057 3.697a7.502 7.502 0 0 0 1.684-.233l-.063-1.239a4.148 4.148 0 0 1-1.621.307m6.037.001c-1.515 0-2.076-1.346-2.076-2.68 0-1.303.604-2.637 2.076-2.637s2.077 1.334 2.077 2.637c0 1.334-.562 2.68-2.077 2.68m0-6.483c-2.351 0-3.623 1.536-3.623 3.803s1.25 3.845 3.623 3.845c2.341 0 3.623-1.611 3.623-3.845a3.459 3.459 0 0 0-3.623-3.803m7.732 5.931h-.021l-1.896-5.804h-1.589l2.542 7.393h1.822l2.489-7.393h-1.472L56.33 7.538zm5.793-1.651h2.638V4.721h-2.638V2.9h2.882V1.735H60.64v7.393h4.386V7.962h-2.903V5.887zm6.25-.996h-.487V2.899h.487c.74 0 1.568.075 1.568.964 0 .922-.836 1.028-1.568 1.028m1.589.582v-.021a1.69 1.69 0 0 0 1.525-1.716c0-2.055-1.896-2.002-3.484-2.002h-1.6v7.393h1.483V6.056h.477a.921.921 0 0 1 1.027.762l.89 2.309h1.652l-1.186-2.891a1.096 1.096 0 0 0-.784-.763m5.402-.636l-1.748-3.103h-1.737l2.701 4.47v2.923h1.483V6.204l2.649-4.47h-1.569l-1.779 3.103zm9.14.318h-.52V2.9h.52a1.179 1.179 0 0 1 1.409 1.155 1.153 1.153 0 0 1-1.41 1.101m-.126-3.42h-1.875v7.392h1.483V6.32h.625c1.589 0 2.85-.625 2.85-2.351 0-1.77-1.473-2.235-3.083-2.235m5.624 0h-1.483v7.393h4.354V7.961h-2.871V1.734zm5.656 4.533l1.07-3.05h.022l1.07 3.05h-2.162zm.276-4.533l-2.881 7.393h1.536l.645-1.695h2.998l.636 1.695h1.642l-2.903-7.393h-1.673zm9.226 6.356a2.436 2.436 0 0 1-2.512-2.639 2.47 2.47 0 0 1 2.48-2.679 3.057 3.057 0 0 1 1.599.391l.106-1.25a4.9 4.9 0 0 0-1.673-.307c-2.512 0-4.058 1.42-4.058 3.951 0 2.5 1.664 3.697 4.058 3.697a7.51 7.51 0 0 0 1.683-.233l-.063-1.239a4.139 4.139 0 0 1-1.62.307m4.257-.127V5.887h2.638V4.721h-2.638V2.899h2.881V1.735h-4.364v7.393h4.385V7.962h-2.902z" fill="#777779"/><path d="M18.086 12.024A9.265 9.265 0 0 0 11.248.187zm-1.706 3.12a9.408 9.408 0 0 0 .58-.777L11.074 4.123l-3.47 5.718H5.127l5.81-9.717A9.322 9.322 0 0 0 9.97 0L3.627 10.646h6.613l1.341 2.121H.702a9.238 9.238 0 0 0 .42.881h12.004c-.157-.261-3.442-5.544-3.442-5.544l1.374-2.221zM7.326.173a9.261 9.261 0 0 0-6.895 11.85zm-4.62 15.594a9.256 9.256 0 0 0 13.106 0H2.706z" fill="#00b2e2"/></svg>